<!DOCTYPE svg PUBLIC "-//W3C//DTD SVG 20010904//EN"
 "http://www.w3.org/TR/2001/REC-SVG-20010904/DTD/svg10.dtd">
<svg version="1.0" xmlns="http://www.w3.org/2000/svg"
 width="768.000000pt" height="390.000000pt" viewBox="0 0 768.000000 390.000000"
 preserveAspectRatio="xMidYMid meet">

<g transform="translate(0.000000,390.000000) scale(0.100000,-0.100000)"
fill="#000000" stroke="none">
<path d="M10 1950 l0 -1301 793 4 c878 4 840 1 1008 72 204 86 321 205 779
795 190 244 346 447 348 450 1 4 -124 168 -279 366 -154 197 -289 377 -300
399 -40 86 -17 181 62 248 81 70 187 71 262 5 20 -18 145 -172 277 -343 133
-170 245 -311 250 -313 4 -2 119 140 255 315 135 175 262 330 282 345 77 59
187 45 265 -33 73 -73 87 -167 35 -251 -12 -20 -143 -191 -291 -381 -147 -190
-268 -349 -267 -354 1 -4 51 -72 112 -150 l110 -143 -131 -176 c-72 -97 -135
-173 -139 -168 -4 5 -56 71 -115 147 -59 75 -111 137 -114 137 -4 0 -124 -152
-267 -337 -315 -408 -396 -506 -472 -569 -32 -26 -62 -52 -67 -56 -6 -4 1179
-8 2632 -8 l2642 0 0 1300 0 1301 -837 -3 -838 -3 -87 -31 c-164 -59 -313
-168 -452 -332 -41 -48 -219 -274 -396 -502 -178 -228 -327 -421 -332 -427 -7
-9 69 -114 273 -375 156 -200 292 -379 302 -398 14 -26 17 -51 15 -96 -5 -74
-37 -130 -100 -171 -36 -24 -52 -28 -114 -28 -61 0 -77 4 -108 26 -20 14 -142
162 -272 330 -130 167 -246 314 -258 326 l-21 22 -248 -319 c-137 -176 -263
-331 -280 -345 -102 -77 -252 -33 -313 91 -28 57 -29 106 -6 165 6 14 137 188
291 387 155 199 281 366 281 372 0 6 -49 75 -110 152 -67 87 -107 145 -102
153 18 31 248 334 253 335 5 0 159 -190 225 -278 9 -12 68 58 305 364 192 248
328 414 395 482 l102 102 -2619 0 -2619 0 0 -1300z m1453 1075 c529 -92 911
-575 884 -1119 -23 -476 -343 -871 -807 -998 -75 -20 -106 -23 -270 -22 -171
0 -192 2 -275 28 -179 54 -322 135 -452 259 -100 95 -164 182 -223 302 -139
282 -153 591 -40 883 131 341 447 601 807 666 104 19 271 19 376 1z m5108 0
c412 -72 746 -381 856 -793 24 -87 27 -115 27 -272 0 -159 -2 -184 -27 -273
-104 -385 -394 -677 -775 -779 -117 -31 -347 -36 -472 -10 -409 85 -724 387
-832 797 -27 102 -36 323 -18 433 73 455 424 816 873 897 98 18 267 18 368 0z"/>
<path d="M1210 2599 c-261 -24 -484 -217 -550 -475 -40 -155 -19 -332 55 -473
127 -241 413 -379 680 -327 192 38 371 174 453 346 53 112 67 174 66 295 0
177 -62 325 -188 451 -140 140 -314 202 -516 183z"/>
<path d="M6350 2602 c-259 -18 -468 -176 -563 -425 -29 -77 -31 -90 -31 -217
0 -121 2 -143 26 -208 37 -102 82 -175 153 -247 74 -75 155 -125 260 -161 68
-23 97 -27 190 -28 124 0 186 14 295 69 223 112 362 358 346 610 -11 173 -67
296 -191 420 -82 82 -154 128 -253 160 -55 18 -173 32 -232 27z"/>
</g>
</svg>
